<svg xmlns="http://www.w3.org/2000/svg" xmlns:xlink="http://www.w3.org/1999/xlink" viewBox="0,0,256,256" width="128px" height="128px" fill-rule="nonzero"><g transform="translate(50,50) scale(0.60938,0.60938)"><g fill="#740798" fill-rule="nonzero" stroke="none" stroke-width="1" stroke-linecap="butt" stroke-linejoin="miter" stroke-miterlimit="10" stroke-dasharray="" stroke-dashoffset="0" font-family="none" font-weight="none" font-size="none" text-anchor="none" style="mix-blend-mode: normal"><path d="M-82.05128,338.05128v-420.10256h420.10256v420.10256z" id="bgRectangle"></path></g><g fill="none" fill-rule="nonzero" stroke="none" stroke-width="1" stroke-linecap="butt" stroke-linejoin="miter" stroke-miterlimit="10" stroke-dasharray="" stroke-dashoffset="0" font-family="none" font-weight="none" font-size="none" text-anchor="none" style="mix-blend-mode: normal"><g transform="scale(2,2)"><path d="M108.9,108.9v0c-2.3,2.3 -6.1,2.3 -8.5,0l-12.7,-12.7c-2.3,-2.3 -2.3,-6.1 0,-8.5v0c2.3,-2.3 6.1,-2.3 8.5,0l12.7,12.7c2.3,2.4 2.3,6.2 0,8.5z" fill="#ffffff"></path><path transform="translate(-21.6794,52.33858) rotate(-45.001)" d="M52.3,17.3c-19.32997,0 -35,15.67003 -35,35c0,19.32997 15.67003,35 35,35c19.32997,0 35,-15.67003 35,-35c0,-19.32997 -15.67003,-35 -35,-35z" fill="#ffffff"></path><path transform="translate(-21.6794,52.33858) rotate(-45.001)" d="M52.3,17.3c-19.32997,0 -35,15.67003 -35,35c0,19.32997 15.67003,35 35,35c19.32997,0 35,-15.67003 35,-35c0,-19.32997 -15.67003,-35 -35,-35z" fill="#ffffff"></path><path d="M52.3,84.3c-1.7,0 -3,-1.3 -3,-3c0,-1.7 1.3,-3 3,-3c6.9,0 13.5,-2.7 18.4,-7.6c6.4,-6.4 9,-15.5 6.9,-24.4c-0.4,-1.6 0.6,-3.2 2.2,-3.6c1.6,-0.4 3.2,0.6 3.6,2.2c2.6,10.9 -0.5,22.2 -8.4,30.1c-6.1,6 -14.1,9.3 -22.7,9.3zM72.9,35c-0.8,0 -1.5,-0.3 -2.1,-0.9l0,-0.1c-1.2,-1.2 -1.2,-3.1 0,-4.3c1.2,-1.2 3,-1.2 4.2,0l0.1,0.1c1.2,1.2 1.2,3.1 0,4.3c-0.6,0.6 -1.4,0.9 -2.2,0.9z" fill="#8b05bd"></path><path d="M52.3,90.3c-9.7,0 -19.5,-3.7 -26.9,-11.1c-14.8,-14.8 -14.8,-38.9 0,-53.7c14.8,-14.8 38.9,-14.8 53.7,0v0c14.9,14.8 14.9,38.9 0.1,53.7c-7.4,7.4 -17.1,11.1 -26.9,11.1zM52.3,20.4c-8.2,0 -16.4,3.1 -22.6,9.4c-12.5,12.5 -12.5,32.8 0,45.3c12.5,12.3 32.8,12.3 45.3,-0.1c12.5,-12.5 12.5,-32.8 0,-45.3c-6.3,-6.2 -14.5,-9.3 -22.7,-9.3zM111,98.3l-12.7,-12.7c-1.7,-1.7 -4,-2.6 -6.4,-2.6c-1.4,0 -2.7,0.3 -3.9,0.9l-2.5,-2.5c-1.2,-1.2 -3.1,-1.2 -4.2,0c-1.2,1.2 -1.2,3.1 0,4.2l2.5,2.5c-1.6,3.3 -1,7.5 1.7,10.2l12.8,12.7c1.8,1.8 4.1,2.6 6.4,2.6c2.3,0 4.6,-0.9 6.4,-2.6v0c1.7,-1.7 2.6,-4 2.6,-6.4c0,-2.3 -1,-4.6 -2.7,-6.3zM106.8,106.8v0c-1.2,1.2 -3.1,1.2 -4.2,0l-12.8,-12.7c-1.2,-1.2 -1.2,-3.1 0,-4.2v0v0c0.6,-0.6 1.3,-0.9 2.1,-0.9c0.8,0 1.6,0.3 2.1,0.9l12.7,12.7c0.6,0.6 0.9,1.3 0.9,2.1c0,0.8 -0.2,1.5 -0.8,2.1z" fill="#ffffff"></path></g></g></g></svg>